<svg xmlns="http://www.w3.org/2000/svg" viewBox="0 0 800 800" fill="none">
  <g stroke="#15803d" stroke-opacity="0.18" stroke-width="1.2">
    <ellipse cx="200" cy="400" rx="140" ry="90" />
    <path d="M50,380 C110,310 180,290 280,310 C380,330 450,430 400,530 C350,610 230,620 140,570 C70,530 0,460 50,380 Z" />
    <path d="M20,360 C90,270 190,250 320,280 C440,310 510,450 450,580 C390,680 230,670 120,620 C30,575 -40,470 20,360 Z" />
    <path d="M-10,340 C70,230 200,210 360,250 C500,290 570,470 500,630 C430,750 230,730 100,670 C0,620 -80,480 -10,340 Z" />
    <path d="M-40,320 C50,190 210,170 400,220 C560,270 630,490 550,680 C470,820 230,790 80,720 C-30,660 -120,490 -40,320 Z" />
    <path d="M-70,300 C30,150 220,130 440,190 C620,250 690,510 600,730 C510,890 230,850 60,770 C-60,700 -160,500 -70,300 Z" />
  </g>
</svg>
